# File created by Blade
# Date/Time:  Tue Jan 27 18:09:10 2015
# Frame Rate: 120.000 fps
#------------------------------------------------------
:FULLY-SPECIFIED
:DEGREES
3593
root -1.646497 31.910458 -6.507606 4.146906 -7.053699 1.442029
Spine -4.146302 -27.622084 -3.581765
Head 32.643997 24.713109 10.086794
LeftShoulder -17.717057 20.068923 4.116721
LeftArm 21.213793 34.059453 -76.663670
LeftForeArm -0.504294 -0.000000 19.248944
LeftHand -12.121816 -0.000000 0.189422
LeftHandThumb1 -26.253704 0.000000 33.147579
RightShoulder -22.310590 -7.154668 -32.021354
RightArm -39.907291 73.198641 15.276685
RightForeArm 40.343170 0.000000 84.762215
RightHand -11.533771 -0.000000 -9.974897
RightHandThumb1 -24.326973 -0.000000 -32.862282
LeftUpLeg 2.011332 8.617236 0.074277
LeftLeg 0.475921 -0.000000 -0.000000
LeftFoot -20.791957 20.144800 -26.727293
LeftToeBase 8.734170 -0.000000 -0.000000
RightUpLeg -0.094566 5.270314 -2.754250
RightLeg -1.843287 -0.000000 0.000000
RightFoot -13.078418 -8.974836 9.127616
RightToeBase 4.646472 -0.000000 -0.000000
3594
root -1.651477 31.910967 -6.515177 4.120261 -7.082037 1.434445
Spine -4.140655 -27.625973 -3.537418
Head 32.711695 24.782302 10.046269
LeftShoulder -17.738703 20.089626 4.068756
LeftArm 21.201129 34.048978 -76.680914
LeftForeArm -0.631771 -0.000000 19.212811
LeftHand -12.228529 -0.000000 0.130720
LeftHandThumb1 -26.253704 0.000000 33.147579
RightShoulder -22.341836 -7.071760 -32.014762
RightArm -40.168323 73.399059 15.014894
RightForeArm 40.289513 -0.000000 87.173371
RightHand -11.917736 -0.000000 -9.605379
RightHandThumb1 -24.326973 -0.000000 -32.862282
LeftUpLeg 2.014653 8.655178 0.098076
LeftLeg 0.515212 -0.000000 -0.000000
LeftFoot -20.808361 20.099810 -26.764381
LeftToeBase 8.789273 -0.000000 -0.000000
RightUpLeg -0.093221 5.279085 -2.735475
RightLeg -1.822636 -0.000000 0.000000
RightFoot -13.070113 -8.939890 9.131636
RightToeBase 4.656432 -0.000000 -0.000000
3595
root -1.653572 31.911321 -6.521887 4.086863 -7.115104 1.450970
Spine -4.132979 -27.634604 -3.519733
Head 32.780733 24.827928 9.996275
LeftShoulder -17.749694 20.079309 4.041704
LeftArm 21.138298 34.023208 -76.751167
LeftForeArm -0.821265 -0.000000 19.131435
LeftHand -12.204246 -0.000000 0.122899
LeftHandThumb1 -26.253704 0.000000 33.147579
RightShoulder -22.320438 -6.945975 -32.027807
RightArm -40.478472 73.504613 14.665758
RightForeArm 40.101292 -0.000000 89.446408
RightHand -11.631405 -0.000000 -10.483760
RightHandThumb1 -24.326973 -0.000000 -32.862282
LeftUpLeg 2.031336 8.680696 0.079399
LeftLeg 0.521842 -0.000000 -0.000000
LeftFoot -20.818959 20.133359 -26.799965
LeftToeBase 8.782657 -0.000000 -0.000000
RightUpLeg -0.107559 5.199669 -2.744084
RightLeg -1.762990 -0.000000 0.000000
RightFoot -13.089344 -8.811572 9.140524
RightToeBase 4.680319 -0.000000 -0.000000
3596
root -1.657384 31.911803 -6.529646 4.062682 -7.128774 1.462349
Spine -4.132099 -27.643461 -3.496138
Head 32.859799 24.875763 9.977076
LeftShoulder -17.754523 20.082323 4.034055
LeftArm 21.104825 33.986661 -76.798504
LeftForeArm -0.872465 -0.000000 19.018072
LeftHand -12.104705 -0.000000 -0.293030
LeftHandThumb1 -26.253704 0.000000 33.147579
RightShoulder -22.294247 -6.804850 -32.023689
RightArm -41.041465 73.575515 14.071062
RightForeArm 40.075567 -0.000000 91.771254
RightHand -11.337729 -0.000000 -11.036672
RightHandThumb1 -24.326973 -0.000000 -32.862282
LeftUpLeg 2.031322 8.702193 0.086042
LeftLeg 0.550698 -0.000000 -0.000000
LeftFoot -20.789747 20.105560 -26.763422
LeftToeBase 8.769116 -0.000000 -0.000000
RightUpLeg -0.120915 5.155401 -2.745450
RightLeg -1.719540 -0.000000 0.000000
RightFoot -13.097930 -8.789111 9.084739
RightToeBase 4.639015 -0.000000 -0.000000
3597
root -1.657886 31.912554 -6.537168 4.039031 -7.145398 1.487500
Spine -4.133833 -27.643743 -3.480595
Head 32.924443 24.905637 9.898899
LeftShoulder -17.749294 20.071189 4.011120
LeftArm 21.075384 33.960432 -76.817802
LeftForeArm -1.016296 -0.000000 18.914920
LeftHand -12.084316 -0.000000 -0.382875
LeftHandThumb1 -26.253704 0.000000 33.147579
RightShoulder -22.305303 -6.784550 -31.999178
RightArm -41.284368 73.844365 13.809398
RightForeArm 40.016870 -0.000000 94.018772
RightHand -11.167743 0.000000 -11.507571
RightHandThumb1 -24.326973 -0.000000 -32.862282
LeftUpLeg 2.029607 8.702841 0.055582
LeftLeg 0.565327 -0.000000 -0.000000
LeftFoot -20.802302 20.147693 -26.811113
LeftToeBase 8.770279 -0.000000 -0.000000
RightUpLeg -0.166195 4.995869 -2.761284
RightLeg -1.613256 -0.000000 0.000000
RightFoot -13.132838 -8.644796 9.034004
RightToeBase 4.658268 -0.000000 -0.000000
3598
root -1.661161 31.913138 -6.544321 4.024247 -7.154750 1.494364
Spine -4.141256 -27.628581 -3.457469
Head 32.992007 24.908134 9.850981
LeftShoulder -17.744515 20.076261 3.997078
LeftArm 21.090560 33.957160 -76.801001
LeftForeArm -1.156831 0.000000 18.806549
LeftHand -12.076413 -0.000000 -0.431405
LeftHandThumb1 -26.253704 0.000000 33.147579
RightShoulder -22.342935 -6.756257 -31.966083
RightArm -41.445467 74.087409 13.583604
RightForeArm 40.027963 -0.000000 96.210702
RightHand -11.260135 0.000000 -11.982321
RightHandThumb1 -24.326973 -0.000000 -32.862282
LeftUpLeg 2.023944 8.723829 0.055856
LeftLeg 0.580578 -0.000000 -0.000000
LeftFoot -20.786589 20.145769 -26.807262
LeftToeBase 8.778741 -0.000000 -0.000000
RightUpLeg -0.163834 4.999653 -2.761882
RightLeg -1.617128 -0.000000 0.000000
RightFoot -13.123314 -8.630792 9.050957
RightToeBase 4.683514 -0.000000 -0.000000
3599
root -1.666229 31.913458 -6.551324 4.004687 -7.166512 1.491790
Spine -4.134961 -27.604504 -3.439953
Head 33.065010 24.925946 9.828178
LeftShoulder -17.730358 20.083618 3.994358
LeftArm 21.117437 33.955809 -76.769459
LeftForeArm -1.334963 -0.000000 18.686341
LeftHand -12.059622 -0.000000 -0.445659
LeftHandThumb1 -26.253704 0.000000 33.147579
RightShoulder -22.363452 -6.723711 -31.922918
RightArm -41.686495 74.326198 13.276705
RightForeArm 40.090539 -0.000000 98.321128
RightHand -11.243017 -0.000000 -12.254813
RightHandThumb1 -24.326973 -0.000000 -32.862282
LeftUpLeg 2.027440 8.742867 0.071655
LeftLeg 0.593350 -0.000000 -0.000000
LeftFoot -20.794484 20.125489 -26.833138
LeftToeBase 8.789425 -0.000000 -0.000000
RightUpLeg -0.136674 5.083713 -2.753535
RightLeg -1.663269 -0.000000 0.000000
RightFoot -13.091115 -8.678453 9.080544
RightToeBase 4.630969 -0.000000 -0.000000
3600
root -1.673256 31.914212 -6.558424 3.983342 -7.172997 1.475157
Spine -4.143863 -27.617839 -3.403731
Head 33.194723 24.964773 9.794084
LeftShoulder -17.720952 20.106409 3.968754
LeftArm 21.133821 33.914304 -76.726358
LeftForeArm -1.434137 -0.000000 18.591756
LeftHand -12.050257 -0.000000 -0.264307
LeftHandThumb1 -26.253704 0.000000 33.147579
RightShoulder -22.323418 -6.624547 -31.900960
RightArm -41.896461 74.437527 12.985630
RightForeArm 39.979576 -0.000000 100.467455
RightHand -11.152659 -0.000000 -12.706982
RightHandThumb1 -24.326973 -0.000000 -32.862282
LeftUpLeg 2.030035 8.768912 0.109126
LeftLeg 0.614129 -0.000000 -0.000000
LeftFoot -20.741949 20.112740 -26.751700
LeftToeBase 8.710962 -0.000000 -0.000000
RightUpLeg -0.083580 5.236029 -2.731121
RightLeg -1.753352 -0.000000 0.000000
RightFoot -13.049772 -8.788525 9.141800
RightToeBase 4.666600 -0.000000 -0.000000
3601
root -1.678049 31.914623 -6.566494 3.966191 -7.178265 1.471770
Spine -4.123396 -27.612860 -3.389814
Head 33.232406 24.996409 9.725495
LeftShoulder -17.734290 20.106664 3.943917
LeftArm 21.185034 33.920619 -76.639177
LeftForeArm -1.561395 -0.000000 18.505299
LeftHand -12.020702 -0.000000 -0.302204
LeftHandThumb1 -26.253704 0.000000 33.147579
RightShoulder -22.354227 -6.544618 -31.865256
RightArm -41.940647 74.574801 12.847882
RightForeArm 40.079129 -0.000000 102.507455
RightHand -11.138059 -0.000000 -13.233127
RightHandThumb1 -24.326973 -0.000000 -32.862282
LeftUpLeg 2.025212 8.799727 0.123051
LeftLeg 0.637505 -0.000000 -0.000000
LeftFoot -20.753556 20.071842 -26.813118
LeftToeBase 8.762998 -0.000000 -0.000000
RightUpLeg -0.050130 5.333459 -2.723481
RightLeg -1.816672 -0.000000 0.000000
RightFoot -13.020034 -8.855602 9.188101
RightToeBase 4.693431 -0.000000 -0.000000
3602
root -1.678710 31.915338 -6.575303 3.947078 -7.192411 1.496398
Spine -4.120525 -27.615317 -3.398118
Head 33.334743 25.062345 9.671375
LeftShoulder -17.729095 20.091774 3.945780
LeftArm 21.178419 33.892350 -76.613203
LeftForeArm -1.597424 -0.000000 18.450279
LeftHand -12.104102 -0.000000 -0.331167
LeftHandThumb1 -26.253704 0.000000 33.147579
RightShoulder -22.405575 -6.567813 -31.823428
RightArm -41.527659 74.801236 13.210038
RightForeArm 40.036309 -0.000000 104.525666
RightHand -10.902405 -0.000000 -13.658829
RightHandThumb1 -24.326973 -0.000000 -32.862282
LeftUpLeg 2.024558 8.795204 0.102212
LeftLeg 0.636429 -0.000000 -0.000000
LeftFoot -20.724485 20.102984 -26.784281
LeftToeBase 8.751192 -0.000000 -0.000000
RightUpLeg -0.091117 5.210937 -2.737031
RightLeg -1.735483 -0.000000 0.000000
RightFoot -13.041378 -8.767670 9.110024
RightToeBase 4.689790 -0.000000 -0.000000
3603
root -1.677518 31.915636 -6.582770 3.926710 -7.219115 1.528972
Spine -4.121092 -27.609808 -3.394606
Head 33.425530 25.128072 9.616147
LeftShoulder -17.737123 20.071513 3.909237
LeftArm 21.187447 33.890015 -76.533709
LeftForeArm -1.578606 -0.000000 18.421370
LeftHand -12.122981 -0.000000 -0.330037
LeftHandThumb1 -26.253704 0.000000 33.147579
RightShoulder -22.411607 -6.593985 -31.790961
RightArm -41.421030 75.036989 13.257296
RightForeArm 40.110304 0.000000 106.491126
RightHand -10.762359 -0.000000 -14.039792
RightHandThumb1 -24.326973 -0.000000 -32.862282
LeftUpLeg 2.027016 8.815539 0.067759
LeftLeg 0.652123 -0.000000 -0.000000
LeftFoot -20.727155 20.089077 -26.830272
LeftToeBase 8.771549 -0.000000 -0.000000
RightUpLeg -0.179538 4.892523 -2.752174
RightLeg -1.550823 -0.000000 0.000000
RightFoot -13.089701 -8.498835 8.982184
RightToeBase 4.629500 -0.000000 -0.000000
3604
root -1.680430 31.916269 -6.591021 3.920279 -7.236128 1.531078
Spine -4.125562 -27.599029 -3.372397
Head 33.501997 25.182280 9.554972
LeftShoulder -17.766174 20.077587 3.856701
LeftArm 21.265324 33.924656 -76.385645
LeftForeArm -1.600388 -0.000000 18.399813
LeftHand -12.142102 -0.000000 -0.069012
LeftHandThumb1 -26.253704 0.000000 33.147579
RightShoulder -22.395018 -6.493819 -31.756608
RightArm -41.598838 75.103803 12.975146
RightForeArm 40.074854 -0.000000 108.447303
RightHand -10.684616 -0.000000 -14.415751
RightHandThumb1 -24.326973 -0.000000 -32.862282
LeftUpLeg 2.022073 8.811411 0.069517
LeftLeg 0.635236 -0.000000 -0.000000
LeftFoot -20.694688 20.155989 -26.766544
LeftToeBase 8.767151 -0.000000 -0.000000
RightUpLeg -0.196758 4.864109 -2.748159
RightLeg -1.537378 -0.000000 0.000000
RightFoot -13.080791 -8.474580 8.956760
RightToeBase 4.667798 -0.000000 -0.000000
